<?xml version="1.0" standalone="no"?>
<!DOCTYPE svg PUBLIC "-//W3C//DTD SVG 20010904//EN"
 "http://www.w3.org/TR/2001/REC-SVG-20010904/DTD/svg10.dtd">
<svg version="1.0" xmlns="http://www.w3.org/2000/svg"
 width="1027.000000pt" height="1280.000000pt" viewBox="0 0 1027.000000 1280.000000"
 preserveAspectRatio="xMidYMid meet">
<metadata>
Created by potrace 1.15, written by Peter Selinger 2001-2017
</metadata>
<g transform="translate(0.000000,1280.000000) scale(0.100000,-0.100000)"
fill="#000000" stroke="none">
<path d="M3965 12779 c-502 -50 -979 -183 -1420 -394 -173 -83 -330 -170 -330
-183 0 -6 -4 -14 -9 -19 -5 -5 -6 -3 -2 5 4 6 4 12 1 12 -25 0 -338 -208 -330
-219 2 -5 -3 -15 -13 -22 -15 -13 -16 -12 -3 4 7 9 9 17 3 17 -13 0 -33 -25
-26 -32 3 -3 -9 -16 -27 -29 -18 -13 -29 -18 -25 -11 4 7 3 12 -2 12 -12 0
-33 -25 -27 -32 3 -3 -3 -11 -12 -19 -16 -13 -17 -12 -4 4 7 9 9 17 3 17 -12
0 -34 -25 -27 -32 3 -3 -5 -13 -17 -24 l-23 -19 19 23 c27 31 5 28 -25 -5 -13
-14 -17 -22 -9 -18 10 5 8 1 -4 -13 -21 -25 -36 -31 -16 -7 7 8 8 15 3 15 -13
0 -45 -35 -38 -42 3 -2 -7 -15 -22 -29 -25 -22 -26 -22 -9 -1 32 37 2 25 -35
-15 -18 -20 -25 -31 -14 -23 11 8 4 -3 -14 -23 -19 -20 -37 -37 -40 -37 -2 0
6 11 19 25 13 14 19 25 14 25 -13 0 -357 -344 -363 -362 -2 -7 12 0 30 17 29
25 28 24 -6 -13 -40 -43 -58 -56 -34 -24 7 9 -4 1 -24 -17 -40 -37 -52 -67
-14 -35 20 17 20 16 -2 -9 -26 -29 -37 -35 -25 -14 4 6 -5 1 -19 -12 -33 -30
-36 -52 -4 -25 20 17 20 16 -2 -9 -26 -29 -37 -35 -25 -14 4 6 -5 1 -19 -12
-33 -30 -36 -52 -4 -25 l22 19 -19 -23 c-11 -12 -21 -20 -24 -17 -7 7 -32 -15
-32 -27 0 -6 8 -4 17 3 16 13 17 12 4 -4 -8 -9 -16 -15 -19 -12 -7 7 -42 -25
-42 -38 0 -6 10 -2 23 9 l22 19 -19 -23 c-11 -12 -21 -20 -24 -17 -7 7 -32
-15 -32 -27 0 -6 8 -4 18 3 15 13 16 12 3 -4 -8 -9 -16 -15 -19 -12 -7 7 -32
-15 -32 -27 0 -6 8 -4 18 3 15 11 15 11 4 -1 -7 -8 -18 -15 -24 -15 -6 0 -13
-6 -16 -14 -3 -9 0 -11 9 -6 8 5 11 4 6 -1 -5 -5 -12 -9 -15 -9 -13 0 -32 -16
-32 -27 0 -6 7 -5 18 3 15 13 16 12 3 -3 -7 -10 -17 -16 -21 -13 -5 3 -18 -8
-29 -24 -24 -33 -27 -45 -8 -35 7 4 9 3 4 -2 -5 -5 -14 -9 -20 -9 -5 0 -12 -6
-15 -14 -3 -9 0 -11 9 -6 8 5 11 4 6 -1 -5 -5 -14 -9 -20 -9 -5 0 -12 -6 -15
-14 -3 -9 0 -11 9 -6 8 5 11 4 6 -1 -5 -5 -14 -9 -20 -9 -5 0 -12 -6 -15 -14
-3 -9 0 -11 9 -6 8 5 11 4 6 -1 -5 -5 -14 -9 -20 -9 -5 0 -12 -6 -15 -14 -3
-9 0 -11 8 -6 9 5 11 4 6 -4 -4 -6 -11 -9 -16 -6 -5 3 -14 -3 -19 -14 -14 -26
-14 -34 1 -25 7 4 8 3 4 -5 -4 -6 -11 -9 -16 -6 -4 3 -18 -10 -29 -29 -24 -37
-27 -51 -9 -40 7 4 8 3 4 -5 -4 -6 -11 -9 -16 -6 -19 12 -212 -354 -335 -635
-103 -236 -145 -364 -184 -555 -43 -213 -46 -253 -45 -565 1 -318 4 -347 63
-631 17 -81 89 -290 134 -389 54 -120 125 -240 138 -237 6 1 18 -9 26 -23 l15
-25 -21 25 c-24 30 -28 20 -5 -15 9 -14 20 -23 24 -20 4 3 14 -3 21 -13 13
-15 12 -16 -3 -3 -10 7 -18 9 -18 4 0 -13 35 -45 42 -38 3 3 11 -3 19 -12 13
-16 12 -17 -4 -4 -9 7 -17 9 -17 4 0 -11 155 -166 172 -172 9 -3 8 2 -2 15
-14 18 -14 18 3 5 9 -8 15 -16 12 -19 -7 -7 15 -32 27 -32 6 0 4 8 -3 18 -11
15 -11 15 1 4 8 -7 15 -18 15 -24 0 -15 107 -74 180 -98 34 -11 100 -26 149
-33 82 -12 97 -11 210 11 102 20 155 24 341 25 231 2 303 -5 491 -49 193 -44
431 -140 593 -238 63 -38 76 -43 65 -23 -4 7 -3 9 2 4 5 -5 9 -14 9 -20 0 -5
6 -12 14 -15 9 -3 11 0 6 8 -5 9 -4 11 4 6 6 -4 9 -11 6 -16 -3 -5 8 -18 24
-29 41 -29 52 -26 16 5 l-30 26 33 -22 c18 -12 31 -25 28 -28 -7 -7 13 -32 26
-32 6 0 4 8 -3 18 -13 15 -12 16 3 3 10 -7 16 -16 13 -20 -4 -8 78 -81 92 -81
4 0 -12 18 -37 41 l-45 41 53 -42 c47 -38 69 -62 41 -44 -6 3 52 -56 128 -132
76 -76 140 -139 143 -139 12 -1 31 -18 52 -47 12 -17 17 -28 10 -24 -7 4 -12
3 -12 -2 0 -12 25 -33 32 -27 3 3 11 -3 19 -12 13 -16 12 -17 -3 -4 -26 20
-22 -2 4 -25 12 -10 18 -13 14 -6 -10 18 -1 15 15 -5 12 -14 12 -16 0 -9 -9 6
-12 4 -9 -5 3 -8 10 -14 18 -14 7 0 19 -11 28 -25 l14 -25 -21 25 c-11 14 -21
21 -20 15 0 -15 28 -50 41 -50 6 0 17 -11 26 -25 l14 -25 -21 25 c-11 14 -21
21 -21 15 0 -12 39 -63 40 -51 0 12 30 -14 30 -27 0 -6 -7 -2 -15 9 -25 33
-17 6 16 -51 17 -30 35 -53 39 -50 5 3 12 0 16 -6 4 -8 3 -9 -4 -5 -18 11 -15
2 32 -92 78 -156 124 -282 151 -417 84 -417 241 -922 405 -1300 106 -244 312
-631 330 -620 5 3 12 0 16 -6 4 -8 3 -9 -4 -5 -18 11 -15 -3 9 -40 11 -19 25
-32 29 -29 5 3 12 0 16 -6 4 -8 3 -9 -4 -5 -17 10 -15 -6 4 -32 8 -12 19 -20
24 -17 5 3 12 0 16 -6 5 -8 3 -9 -6 -4 -8 5 -11 3 -8 -6 3 -8 10 -14 15 -14 6
0 15 -4 20 -9 5 -5 2 -6 -6 -1 -9 5 -12 3 -9 -6 3 -8 10 -14 15 -14 6 0 15 -4
20 -9 5 -5 2 -6 -6 -1 -9 5 -12 3 -9 -6 3 -8 10 -14 16 -14 6 0 17 -7 24 -15
11 -12 11 -12 -4 -1 -10 7 -18 9 -18 3 0 -11 31 -39 37 -34 3 2 8 0 11 -4 4
-4 1 -4 -5 0 -7 4 -13 3 -13 -2 0 -11 21 -30 33 -30 5 0 12 -4 15 -8 4 -4 1
-4 -5 0 -19 11 -16 -9 4 -25 15 -12 16 -12 8 1 -5 9 0 8 13 -4 25 -21 31 -36
7 -16 -24 20 -17 -5 7 -26 13 -12 18 -13 13 -4 -5 9 0 8 13 -4 25 -21 31 -36
7 -16 -24 20 -17 -5 7 -26 14 -12 18 -14 13 -4 -4 8 6 2 23 -14 18 -17 32 -32
32 -35 0 -2 -11 6 -25 19 -14 13 -25 19 -25 14 0 -6 14 -23 32 -40 17 -16 27
-22 23 -14 -4 8 8 -1 28 -19 21 -19 37 -37 37 -40 0 -3 -13 8 -30 24 -16 16
-30 24 -30 19 0 -12 232 -244 244 -244 5 0 -1 12 -15 27 -15 18 -11 16 14 -6
38 -36 50 -53 20 -30 -10 7 -5 -1 11 -19 31 -33 59 -45 35 -14 -11 14 -10 13
9 -2 24 -21 29 -31 10 -20 -7 4 -4 -2 6 -14 23 -26 44 -30 25 -4 -11 14 -10
13 9 -2 24 -21 29 -32 10 -20 -9 5 -9 2 1 -9 15 -19 36 -23 25 -5 -5 7 -3 8 5
4 7 -5 10 -11 7 -14 -7 -7 13 -32 26 -32 6 0 4 8 -3 18 -13 15 -12 16 3 3 10
-7 16 -17 13 -21 -3 -5 5 -16 17 -24 26 -19 42 -21 32 -4 -4 7 -3 8 5 4 6 -4
9 -11 6 -16 -13 -22 248 -157 413 -214 183 -63 291 -80 502 -80 206 1 298 15
485 76 111 37 340 147 340 165 0 6 4 15 9 20 5 5 6 3 2 -4 -10 -18 2 -16 40 8
19 11 32 25 29 29 -3 5 0 12 6 16 8 5 9 3 4 -6 -5 -8 -3 -11 6 -8 8 3 13 10
12 16 -2 6 3 9 10 7 6 -3 61 33 122 80 60 47 113 85 117 85 14 0 8 -33 -12
-79 l-20 -43 36 27 36 28 -38 -59 c-139 -216 -200 -345 -244 -520 -126 -492 5
-996 353 -1361 236 -247 526 -397 855 -444 109 -15 392 -6 491 16 292 65 515
188 727 399 175 175 281 344 353 561 56 168 66 241 66 460 0 155 -4 219 -18
285 -124 578 -570 1024 -1140 1141 -282 57 -568 28 -855 -87 -136 -55 -163
-57 -199 -21 l-26 26 51 81 c29 45 49 86 46 92 -4 6 -2 8 4 5 5 -4 22 13 36
37 29 50 32 61 14 50 -8 -4 -10 -3 -5 2 5 5 13 9 19 9 13 0 100 158 179 323
294 615 453 1293 490 2083 27 594 -40 887 -404 1759 -312 748 -350 922 -317
1455 27 454 31 537 31 702 -1 311 -50 561 -172 883 -44 115 -191 405 -206 405
-6 0 -15 4 -20 9 -5 5 -3 6 5 2 18 -11 15 0 -14 50 -14 24 -30 42 -34 39 -5
-3 -12 0 -16 6 -5 8 -3 9 6 4 8 -5 11 -3 8 6 -3 8 -10 14 -15 14 -6 0 -15 4
-20 9 -5 5 -2 6 6 1 9 -5 12 -3 9 6 -3 8 -10 14 -15 14 -6 0 -15 4 -20 9 -5 5
-2 6 6 1 9 -5 12 -3 9 6 -3 8 -10 14 -15 14 -6 0 -15 4 -20 9 -5 5 -2 6 6 1 9
-5 12 -3 9 6 -3 8 -10 14 -15 14 -6 0 -15 4 -20 9 -5 5 -2 6 6 1 9 -5 12 -3 9
6 -3 8 -10 14 -16 14 -6 0 -17 7 -24 15 -11 12 -11 12 5 1 9 -7 17 -9 17 -3 0
12 -25 34 -32 27 -3 -3 -11 3 -19 12 -13 16 -12 17 4 4 10 -8 17 -9 17 -3 0
11 -19 27 -34 27 -5 0 -20 16 -34 35 l-25 35 31 -35 c18 -19 32 -30 32 -25 0
6 -16 28 -36 50 -19 22 -32 33 -28 25 5 -10 0 -9 -14 4 -25 21 -31 36 -7 16
27 -22 16 6 -12 31 -21 18 -24 19 -13 4 8 -11 0 -7 -18 9 -18 17 -32 32 -32
34 0 3 9 -3 20 -13 11 -10 20 -14 20 -8 0 5 -12 20 -27 34 -14 13 -23 17 -18
9 4 -8 -8 1 -28 19 -21 19 -37 37 -37 40 0 3 14 -8 30 -24 17 -16 30 -24 30
-17 0 15 -387 402 -402 402 -6 0 -1 -12 13 -27 15 -18 11 -16 -14 6 -38 36
-50 53 -19 30 9 -7 4 1 -12 19 -33 36 -60 44 -30 10 10 -13 4 -10 -14 6 -34
32 -44 47 -14 25 9 -7 6 -1 -7 14 -27 30 -52 38 -30 10 11 -15 10 -14 -9 1
-24 21 -29 31 -9 20 6 -4 3 2 -7 14 -23 26 -44 30 -25 5 11 -15 10 -14 -9 1
-24 21 -29 31 -9 20 6 -4 3 2 -7 14 -23 26 -45 30 -25 5 13 -16 12 -17 -4 -4
-9 8 -15 16 -12 19 7 7 -15 32 -27 32 -6 0 -4 -8 3 -17 13 -16 12 -17 -3 -4
-10 7 -16 17 -13 21 5 9 -46 50 -62 50 -4 0 6 -12 22 -26 l30 -26 -32 22 c-18
11 -32 26 -30 32 1 6 -4 13 -12 16 -9 3 -11 0 -6 -8 5 -9 4 -11 -4 -6 -6 4 -9
11 -6 16 3 5 -11 20 -32 34 -41 28 -58 33 -47 14 4 -8 3 -10 -2 -5 -5 5 -9 14
-9 20 0 5 -6 12 -14 15 -9 3 -11 0 -6 -8 5 -9 4 -11 -4 -6 -6 4 -9 11 -6 16 3
5 -14 20 -38 34 -48 28 -62 32 -51 14 4 -7 3 -8 -5 -4 -6 4 -9 11 -6 16 3 5
-8 16 -24 25 -36 18 -45 19 -35 3 4 -7 3 -8 -5 -4 -6 4 -9 11 -6 16 13 21
-365 191 -588 265 -225 75 -428 121 -702 161 -130 18 -690 28 -830 13z m248
-6 c-23 -2 -64 -2 -90 0 -26 2 -7 3 42 3 50 0 71 -1 48 -3z m305 0 c-21 -2
-57 -2 -80 0 -24 2 -7 4 37 4 44 0 63 -2 43 -4z m-475 -10 c-13 -2 -33 -2 -45
0 -13 2 -3 4 22 4 25 0 35 -2 23 -4z m595 0 c-16 -2 -40 -2 -55 0 -16 2 -3 4
27 4 30 0 43 -2 28 -4z m-709 -7 c-2 -2 -35 -6 -74 -9 -45 -3 -58 -3 -35 2 37
9 116 14 109 7z m876 -5 c53 -11 5 -12 -55 -2 -34 6 -37 9 -15 9 17 1 48 -3
70 -7z m-1052 -18 c-7 -2 -19 -2 -25 0 -7 3 -2 5 12 5 14 0 19 -2 13 -5z
m1192 -3 c27 -7 27 -8 5 -8 -14 0 -38 4 -55 8 -27 7 -27 8 -5 8 14 0 39 -4 55
-8z m-1242 -7 c-7 -2 -21 -2 -30 0 -10 3 -4 5 12 5 17 0 24 -2 18 -5z m-93
-13 c-14 -4 -34 -8 -45 -8 -16 0 -15 2 5 8 14 4 34 8 45 8 16 0 15 -2 -5 -8z
m1413 3 c-7 -2 -19 -2 -25 0 -7 3 -2 5 12 5 14 0 19 -2 13 -5z m50 -10 c-7 -2
-19 -2 -25 0 -7 3 -2 5 12 5 14 0 19 -2 13 -5z m-1563 -13 c-14 -4 -34 -8 -45
-8 -16 0 -15 2 5 8 14 4 34 8 45 8 16 0 15 -2 -5 -8z m1640 0 c20 -6 21 -8 5
-8 -11 0 -29 3 -40 8 -25 11 1 11 35 0z m-1735 -20 c-11 -5 -29 -8 -40 -8 -16
0 -15 2 5 8 34 11 60 11 35 0z m1820 0 c13 -5 14 -9 5 -9 -8 0 -24 4 -35 9
-13 5 -14 9 -5 9 8 0 24 -4 35 -9z m-1900 -20 c-11 -5 -27 -9 -35 -9 -9 0 -8
4 5 9 11 5 27 9 35 9 9 0 8 -4 -5 -9z m1970 0 c13 -6 15 -9 5 -9 -8 0 -22 4
-30 9 -18 12 -2 12 25 0z m75 -20 c18 -12 2 -12 -25 0 -13 6 -15 9 -5 9 8 0
22 -4 30 -9z m-2195 -20 c-11 -5 -27 -9 -35 -9 -9 0 -8 4 5 9 11 5 27 9 35 9
9 0 8 -4 -5 -9z m2260 0 c13 -6 15 -9 5 -9 -8 0 -22 4 -30 9 -18 12 -2 12 25
0z m-2325 -20 c-8 -5 -22 -9 -30 -9 -10 0 -8 3 5 9 27 12 43 12 25 0z m-60
-20 c-8 -5 -22 -9 -30 -9 -10 0 -8 3 5 9 27 12 43 12 25 0z m2505 0 c13 -6 15
-9 5 -9 -8 0 -22 4 -30 9 -18 12 -2 12 25 0z m-2565 -20 c-8 -5 -22 -9 -30 -9
-10 0 -8 3 5 9 27 12 43 12 25 0z m2620 0 c8 -5 11 -10 5 -10 -5 0 -17 5 -25
10 -8 5 -10 10 -5 10 6 0 17 -5 25 -10z m-2680 -20 c-8 -5 -19 -10 -25 -10 -5
0 -3 5 5 10 8 5 20 10 25 10 6 0 3 -5 -5 -10z m2730 0 c8 -5 11 -10 5 -10 -5
0 -17 5 -25 10 -8 5 -10 10 -5 10 6 0 17 -5 25 -10z m-2780 -20 c-8 -5 -19
-10 -25 -10 -5 0 -3 5 5 10 8 5 20 10 25 10 6 0 3 -5 -5 -10z m2830 0 c8 -5
11 -10 5 -10 -5 0 -17 5 -25 10 -8 5 -10 10 -5 10 6 0 17 -5 25 -10z m50 -20
c8 -5 11 -10 5 -10 -5 0 -17 5 -25 10 -8 5 -10 10 -5 10 6 0 17 -5 25 -10z
m-2990 -20 c-8 -5 -19 -10 -25 -10 -5 0 -3 5 5 10 8 5 20 10 25 10 6 0 3 -5
-5 -10z m3060 -10 c19 -11 31 -19 25 -19 -5 0 -26 8 -45 19 -19 11 -30 19 -25
19 6 0 26 -8 45 -19z m-3130 -20 c-19 -11 -39 -19 -45 -19 -5 0 6 8 25 19 19
11 40 19 45 19 6 0 -6 -8 -25 -19z m3195 -18 c-3 -3 -11 0 -18 7 -9 10 -8 11
6 5 10 -3 15 -9 12 -12z m40 -12 c3 -6 -1 -7 -9 -4 -18 7 -21 14 -7 14 6 0 13
-4 16 -10z m-3335 -15 c-14 -8 -29 -14 -35 -14 -5 0 1 6 15 14 14 8 30 14 35
14 6 0 -1 -6 -15 -14z m-55 -25 c-3 -5 -12 -10 -18 -10 -7 0 -6 4 3 10 19 12
23 12 15 0z m3470 -8 c-3 -3 -11 0 -18 7 -9 10 -8 11 6 5 10 -3 15 -9 12 -12z
m40 -20 c-3 -3 -11 0 -18 7 -9 10 -8 11 6 5 10 -3 15 -9 12 -12z m-3590 -12
c-3 -5 -12 -10 -18 -10 -7 0 -6 4 3 10 19 12 23 12 15 0z m-40 -20 c-3 -5 -12
-10 -18 -10 -7 0 -6 4 3 10 19 12 23 12 15 0z m3700 -8 c-3 -3 -11 0 -18 7 -9
10 -8 11 6 5 10 -3 15 -9 12 -12z m-3735 -7 c0 -2 -22 -16 -50 -30 -27 -14
-50 -23 -50 -20 0 2 21 16 48 29 53 28 52 28 52 21z m3820 -41 c0 -2 -9 0 -20
6 -11 6 -20 13 -20 16 0 2 9 0 20 -6 11 -6 20 -13 20 -16z m-3930 -19 c0 -2
-10 -9 -22 -15 -22 -11 -22 -10 -4 4 21 17 26 19 26 11z m-100 -60 c0 -2 -13
-11 -30 -20 -38 -19 -40 -11 -2 9 31 17 32 18 32 11z m2158 -12 c-53 -2 -143
-2 -200 0 -57 1 -13 3 97 3 110 0 156 -2 103 -3z m-349 -7 c-2 -2 -38 -6 -79
-9 -46 -3 -62 -2 -40 3 36 8 126 13 119 6z m616 -6 c18 -5 2 -6 -40 -3 -38 3
-72 7 -74 9 -8 7 84 2 114 -6z m0 -20 c206 -32 264 -43 367 -70 302 -78 596
-205 841 -366 103 -68 132 -81 82 -38 l-30 26 32 -22 c18 -11 32 -26 30 -32
-1 -6 4 -13 12 -16 9 -3 11 0 6 9 -5 8 -5 11 -1 7 4 -3 6 -8 4 -11 -5 -7 33
-47 45 -47 5 0 3 8 -4 18 -13 15 -12 16 4 3 9 -8 15 -16 12 -19 -7 -7 15 -32
27 -32 6 0 4 8 -3 18 -13 15 -12 16 4 3 9 -8 15 -16 12 -19 -7 -7 35 -52 48
-52 6 0 0 11 -13 25 -13 14 -21 25 -19 25 3 0 21 -17 40 -37 18 -20 25 -31 14
-23 -11 8 -4 -3 14 -23 19 -20 39 -37 45 -37 5 0 -1 11 -14 25 -13 14 -21 25
-19 25 2 0 47 -44 99 -97 52 -54 76 -80 53 -58 -24 21 -43 35 -43 29 0 -5 23
-32 52 -59 29 -28 46 -42 39 -32 -22 28 -7 19 25 -15 16 -18 19 -24 7 -14 -35
30 -27 3 9 -30 18 -16 26 -21 19 -11 -19 24 -8 21 15 -5 10 -12 13 -18 7 -14
-7 4 -13 3 -13 -2 0 -12 25 -33 32 -27 3 3 11 -3 19 -12 13 -16 12 -17 -3 -4
-10 7 -18 9 -18 3 0 -12 25 -34 32 -27 3 3 11 -3 19 -12 13 -16 12 -17 -3 -4
-10 7 -18 9 -18 3 0 -13 25 -33 32 -26 3 3 9 0 14 -7 4 -8 3 -10 -4 -5 -20 12
-13 -3 29 -65 22 -33 44 -57 49 -54 5 3 12 0 16 -6 4 -8 3 -9 -4 -5 -20 12
-14 -2 47 -102 212 -351 378 -784 453 -1177 22 -115 23 -137 20 -560 -3 -451
0 -501 39 -720 58 -324 187 -686 332 -934 21 -34 37 -74 37 -88 0 -14 26 -91
59 -172 208 -517 328 -1055 371 -1661 22 -310 11 -775 -26 -1100 -42 -373
-129 -768 -243 -1100 -64 -187 -65 -190 -109 -190 -134 -2 -241 -119 -229
-249 3 -31 7 -62 8 -70 4 -15 -36 -30 -156 -58 -52 -12 -121 -16 -265 -16
-167 0 -209 3 -295 22 -193 44 -378 117 -524 206 -63 37 -76 42 -65 23 4 -8 3
-10 -2 -5 -5 5 -9 14 -9 19 0 6 -6 13 -14 16 -9 3 -11 0 -6 -9 5 -8 4 -11 -1
-6 -5 5 -9 14 -9 19 0 6 -6 13 -14 16 -9 3 -11 0 -6 -8 5 -9 4 -11 -4 -6 -6 4
-9 11 -6 16 3 5 -8 18 -24 29 -36 26 -48 27 -30 4 13 -16 12 -17 -4 -4 -9 8
-15 16 -12 19 6 7 -15 32 -27 32 -5 0 -6 -6 -2 -12 5 -9 2 -8 -9 1 -10 8 -15
16 -12 19 7 7 -15 32 -27 32 -6 0 -4 -8 3 -18 11 -14 9 -13 -9 2 -12 11 -20
22 -17 24 7 7 -35 52 -48 52 -6 0 -2 -10 9 -22 10 -13 -3 -3 -29 21 -25 25
-44 47 -42 50 7 7 -127 141 -135 136 -4 -2 -22 12 -41 33 -23 25 -25 29 -6 13
15 -14 27 -20 27 -15 0 13 -65 76 -72 69 -2 -3 -13 5 -24 17 l-19 23 23 -19
c12 -11 22 -15 22 -9 0 13 -35 45 -42 38 -3 -3 -13 5 -24 17 -15 18 -16 20 -1
9 25 -19 21 2 -5 25 -12 10 -18 13 -14 7 16 -28 -4 -10 -34 30 l-32 42 31 -35
c17 -19 31 -31 31 -26 0 14 -52 76 -60 71 -4 -3 -14 3 -21 13 -13 15 -12 16 4
3 23 -18 22 -6 -4 30 -11 16 -24 27 -29 24 -5 -3 -12 0 -16 6 -5 8 -3 9 6 4 8
-5 11 -3 8 6 -3 8 -10 14 -18 14 -7 0 -19 11 -28 25 l-14 25 21 -25 c11 -14
21 -20 20 -15 0 15 -28 50 -41 50 -6 0 -17 11 -26 25 l-14 25 21 -25 c24 -30
28 -20 5 15 -9 14 -20 23 -24 20 -5 -3 -12 0 -16 6 -4 8 -3 9 4 5 18 -11 15 3
-9 40 -11 19 -25 32 -29 29 -5 -3 -12 0 -16 6 -4 8 -3 9 4 5 20 -12 14 0 -55
122 -233 409 -437 939 -578 1497 -36 143 -57 210 -66 210 -13 0 -27 40 -27 80
0 11 6 -2 13 -30 9 -33 13 -41 14 -24 3 70 -96 404 -173 589 -49 116 -161 325
-174 325 -6 0 -14 4 -19 9 -5 5 -3 6 5 2 17 -10 15 2 -9 40 -11 19 -25 32 -29
29 -5 -3 -23 15 -40 40 -17 25 -29 45 -26 45 3 0 18 -18 32 -40 15 -22 29 -38
31 -36 8 8 -58 97 -66 91 -5 -2 -15 3 -22 13 -13 15 -12 16 4 3 9 -7 17 -9 17
-3 0 12 -25 34 -32 27 -3 -3 -11 3 -19 12 -13 16 -12 17 4 4 9 -7 17 -9 17 -4
0 13 -35 45 -42 38 -3 -3 -11 3 -19 12 -13 16 -12 17 4 4 28 -22 20 3 -10 30
-15 13 -21 16 -14 7 21 -28 7 -21 -20 9 -13 15 -16 21 -6 14 9 -7 17 -9 17 -4
0 12 -65 75 -71 68 -3 -2 -34 25 -69 60 -36 36 -60 65 -55 65 5 0 -6 16 -25
35 -40 41 -65 48 -29 8 23 -27 23 -27 -9 1 -33 31 -41 43 -19 30 6 -4 3 2 -7
14 -21 24 -46 31 -26 7 20 -24 5 -18 -16 7 -12 13 -13 18 -4 13 9 -5 8 0 -4
13 -23 26 -45 30 -25 5 13 -16 12 -17 -3 -4 -10 7 -16 17 -13 21 5 9 -46 50
-62 50 -4 0 6 -12 22 -26 l30 -26 -32 22 c-18 11 -32 26 -30 32 1 6 -4 13 -12
16 -9 3 -11 0 -6 -8 5 -9 4 -11 -4 -6 -6 4 -9 11 -6 16 5 9 -57 54 -92 67 -12
5 -14 3 -8 -7 5 -9 4 -11 -4 -6 -6 4 -9 11 -6 16 10 15 -244 136 -386 184
-229 78 -412 108 -659 108 -240 0 -428 -30 -645 -103 -182 -61 -494 -217 -480
-239 3 -5 0 -12 -6 -16 -8 -5 -9 -3 -4 6 5 8 3 11 -6 8 -8 -3 -13 -10 -12 -16
2 -6 -17 -25 -42 -42 -25 -17 -45 -29 -45 -26 0 3 18 18 40 32 22 15 38 29 36
31 -8 8 -96 -57 -93 -69 1 -6 -4 -12 -11 -14 -8 -1 -8 0 -1 3 7 3 7 8 2 12
-14 8 -85 197 -116 306 -75 260 -108 518 -108 845 -1 482 68 856 219 1182 39
84 280 524 328 600 28 45 30 55 7 37 -16 -13 -17 -12 -4 4 8 9 16 15 19 12 7
-7 32 15 32 27 0 6 -8 4 -17 -3 -16 -13 -17 -12 -4 4 8 9 16 15 19 12 7 -7 32
15 32 27 0 6 -8 4 -18 -3 -15 -11 -15 -11 -4 1 7 8 18 15 24 15 6 0 13 6 16
14 3 9 0 11 -9 6 -8 -5 -11 -4 -6 1 5 5 12 9 15 9 13 0 32 16 32 27 0 6 -7 5
-17 -3 -16 -11 -16 -11 -5 1 7 8 18 15 24 15 6 0 13 6 16 14 3 9 0 11 -9 6 -8
-5 -11 -4 -6 1 5 5 14 9 19 9 6 0 13 6 16 14 3 9 0 11 -9 6 -8 -5 -11 -4 -6 1
5 5 14 9 19 9 6 0 13 6 16 14 3 9 0 11 -9 6 -8 -5 -11 -4 -6 1 5 5 12 9 15 9
13 0 32 16 32 27 0 6 -7 5 -17 -3 -16 -11 -16 -11 -5 1 7 8 18 15 24 15 6 0
13 6 16 14 3 9 0 11 -8 6 -9 -5 -11 -4 -6 4 4 6 11 9 15 7 8 -5 51 47 51 61 0
4 -12 -5 -26 -22 l-26 -30 22 32 c11 18 26 32 32 30 6 -1 13 4 16 12 3 9 0 11
-9 6 -8 -5 -11 -5 -7 -1 3 4 8 6 11 4 7 -5 47 33 47 45 0 5 -8 3 -17 -4 -15
-11 -14 -9 1 9 11 12 22 20 24 17 7 -7 52 35 52 48 0 6 -12 0 -27 -14 -27 -23
-27 -23 1 8 16 18 32 31 35 28 6 -7 71 56 71 69 0 5 -13 -3 -30 -19 -16 -16
-30 -27 -30 -24 0 3 26 29 57 59 32 30 44 39 28 20 l-30 -35 37 34 c21 19 35
38 32 43 -3 5 0 7 8 6 7 -2 12 4 10 12 -2 8 0 12 4 7 9 -8 46 22 39 33 -2 3
24 33 58 66 34 32 46 42 27 22 -18 -21 -29 -38 -24 -38 13 0 86 75 79 81 -3 3
7 16 22 30 25 22 26 22 9 2 -11 -13 -15 -23 -9 -23 13 0 45 35 38 42 -3 2 7
15 22 29 25 22 26 22 9 2 -11 -13 -15 -23 -9 -23 13 0 55 45 48 52 -3 3 3 11
12 19 16 13 17 12 4 -3 -7 -10 -9 -18 -3 -18 12 0 34 25 27 32 -3 3 3 11 12
19 16 13 17 12 4 -3 -7 -10 -9 -18 -3 -18 12 0 34 25 27 32 -3 3 3 11 12 19
16 13 17 12 4 -3 -7 -10 -9 -18 -3 -18 12 0 34 25 27 32 -3 3 3 11 12 19 16
13 17 12 4 -3 -7 -10 -9 -18 -3 -18 13 0 33 25 26 33 -6 5 146 111 196 137 42
21 9 -3 -93 -70 -53 -34 -95 -65 -93 -67 2 -3 44 22 93 54 48 33 114 74 146
92 31 18 55 36 52 41 -3 5 0 12 6 16 8 4 9 3 5 -4 -4 -7 -5 -12 -3 -12 3 0 66
31 142 70 391 198 764 304 1250 354 75 8 530 -3 600 -14z m-2495 6 c0 -2 -12
-11 -27 -20 l-28 -17 24 20 c23 21 31 25 31 17z m1665 -7 c-51 -10 -92 -10
-50 1 17 4 44 8 60 8 25 0 24 -2 -10 -9z m965 1 c20 -6 21 -8 5 -8 -11 0 -33
4 -50 8 -27 7 -27 8 -5 8 14 0 36 -4 50 -8z m-1073 -16 c-3 -3 -12 -4 -19 -1
-8 3 -5 6 6 6 11 1 17 -2 13 -5z m1183 -4 c20 -6 21 -8 5 -8 -11 0 -31 4 -45
8 -20 6 -21 8 -5 8 11 0 31 -4 45 -8z m-1223 -6 c-3 -3 -12 -4 -19 -1 -8 3 -5
6 6 6 11 1 17 -2 13 -5z m-67 -14 c-14 -4 -34 -8 -45 -8 -16 0 -15 2 5 8 14 4
34 8 45 8 16 0 15 -2 -5 -8z m1375 0 c13 -5 14 -9 5 -9 -8 0 -24 4 -35 9 -13
5 -14 9 -5 9 8 0 24 -4 35 -9z m-1448 -16 c-3 -3 -12 -4 -19 -1 -8 3 -5 6 6 6
11 1 17 -2 13 -5z m1528 -4 c13 -5 14 -9 5 -9 -8 0 -24 4 -35 9 -13 5 -14 9
-5 9 8 0 24 -4 35 -9z m-1620 -20 c-11 -5 -27 -9 -35 -9 -9 0 -8 4 5 9 11 5
27 9 35 9 9 0 8 -4 -5 -9z m-70 -20 c-27 -12 -43 -12 -25 0 8 5 22 9 30 9 10
0 8 -3 -5 -9z m1825 0 c18 -12 2 -12 -25 0 -13 6 -15 9 -5 9 8 0 22 -4 30 -9z
m-1890 -20 c-8 -5 -22 -9 -30 -9 -10 0 -8 3 5 9 27 12 43 12 25 0z m1950 0 c8
-5 11 -10 5 -10 -5 0 -17 5 -25 10 -8 5 -10 10 -5 10 6 0 17 -5 25 -10z
m-2010 -20 c-8 -5 -22 -9 -30 -9 -10 0 -8 3 5 9 27 12 43 12 25 0z m-60 -20
c-8 -5 -19 -10 -25 -10 -5 0 -3 5 5 10 8 5 20 10 25 10 6 0 3 -5 -5 -10z
m2180 0 c8 -5 11 -10 5 -10 -5 0 -17 5 -25 10 -8 5 -10 10 -5 10 6 0 17 -5 25
-10z m-2230 -20 c-8 -5 -19 -10 -25 -10 -5 0 -3 5 5 10 8 5 20 10 25 10 6 0 3
-5 -5 -10z m2280 0 c8 -5 11 -10 5 -10 -5 0 -17 5 -25 10 -8 5 -10 10 -5 10 6
0 17 -5 25 -10z m45 -20 c3 -6 -1 -7 -9 -4 -18 7 -21 14 -7 14 6 0 13 -4 16
-10z m45 -20 c8 -5 11 -10 5 -10 -5 0 -17 5 -25 10 -8 5 -10 10 -5 10 6 0 17
-5 25 -10z m-2520 -20 c-8 -5 -19 -10 -25 -10 -5 0 -3 5 5 10 8 5 20 10 25 10
6 0 3 -5 -5 -10z m2605 -20 c3 -6 -1 -7 -9 -4 -18 7 -21 14 -7 14 6 0 13 -4
16 -10z m-2686 -14 c-10 -9 -149 -76 -149 -71 0 6 131 74 144 75 5 0 7 -2 5
-4z m2801 -52 c0 -2 -13 2 -30 11 -16 9 -30 18 -30 21 0 2 14 -2 30 -11 17 -9
30 -18 30 -21z m1410 -261 c0 -8 -15 7 -140 135 l-135 137 138 -135 c75 -74
137 -136 137 -137z m-1360 236 c17 -13 18 -17 5 -10 -33 17 -51 31 -40 31 6 0
21 -10 35 -21z m-3010 -3 c0 -2 -7 -7 -16 -10 -8 -3 -12 -2 -9 4 6 10 25 14
25 6z m-40 -20 c0 -2 -7 -7 -16 -10 -8 -3 -12 -2 -9 4 6 10 25 14 25 6z m3155
-41 l20 -16 -20 10 c-11 5 -29 17 -40 26 l-20 16 20 -10 c11 -5 29 -17 40 -26z
m-3245 -10 c0 -2 -10 -9 -22 -15 -22 -11 -22 -10 -4 4 21 17 26 19 26 11z
m-1150 -98 c0 -1 -51 -52 -112 -112 l-113 -110 110 113 c102 104 115 117 115
109z m6090 -647 c6 -11 8 -20 6 -20 -3 0 -10 9 -16 20 -6 11 -8 20 -6 20 3 0
10 -9 16 -20z m-880 -80 c6 -11 8 -20 6 -20 -3 0 -10 9 -16 20 -6 11 -8 20 -6
20 3 0 10 -9 16 -20z m935 -10 c9 -16 13 -30 11 -30 -3 0 -12 14 -21 30 -9 17
-13 30 -11 30 3 0 12 -13 21 -30z m-878 -85 c21 -42 1 -19 -26 30 -13 22 -15
31 -6 20 9 -11 23 -33 32 -50z m907 29 c3 -8 2 -12 -4 -9 -6 3 -10 10 -10 16
0 14 7 11 14 -7z m46 -86 c32 -59 23 -58 -10 1 -17 30 -30 57 -30 60 0 8 17
-17 40 -61z m-910 -18 c11 -22 18 -40 15 -40 -2 0 -14 18 -25 40 -11 22 -18
40 -15 40 2 0 14 -18 25 -40z m979 -135 c0 -5 -11 10 -24 35 -13 25 -24 50
-24 55 0 6 11 -10 24 -35 13 -25 24 -49 24 -55z m-903 -6 c25 -50 44 -93 42
-95 -2 -2 -25 39 -51 91 -26 52 -45 95 -42 95 3 0 25 -41 51 -91z m-6196 31
c-6 -11 -13 -20 -16 -20 -2 0 0 9 6 20 6 11 13 20 16 20 2 0 0 -9 -6 -20z
m-55 -90 c-9 -16 -18 -30 -21 -30 -2 0 2 14 11 30 9 17 18 30 21 30 2 0 -2
-13 -11 -30z m7222 -116 c-5 -5 -57 127 -56 141 0 6 13 -23 30 -64 16 -40 28
-75 26 -77z m-7276 23 c-10 -9 -11 -8 -5 6 3 10 9 15 12 12 3 -3 0 -11 -7 -18z
m6379 -12 c0 -5 -5 -3 -10 5 -5 8 -10 20 -10 25 0 6 5 3 10 -5 5 -8 10 -19 10
-25z m-6405 -35 c-9 -16 -18 -30 -21 -30 -2 0 2 14 11 30 9 17 18 30 21 30 2
0 -2 -13 -11 -30z m768 5 c-3 -9 -8 -14 -10 -11 -3 3 -2 9 2 15 9 16 15 13 8
-4z m6556 -45 c0 -9 -4 -8 -9 5 -5 11 -9 27 -9 35 0 9 4 8 9 -5 5 -11 9 -27 9
-35z m-879 -15 c0 -5 -5 -3 -10 5 -5 8 -10 20 -10 25 0 6 5 3 10 -5 5 -8 10
-19 10 -25z m-6479 -8 c-10 -9 -11 -8 -5 6 3 10 9 15 12 12 3 -3 0 -11 -7 -18z
m762 -2 c-3 -9 -8 -14 -10 -11 -3 3 -2 9 2 15 9 16 15 13 8 -4z m6616 -40 c0
-5 -4 -3 -9 5 -5 8 -9 22 -9 30 0 16 17 -16 18 -35z m-879 0 c0 -5 -5 -3 -10
5 -5 8 -10 20 -10 25 0 6 5 3 10 -5 5 -8 10 -19 10 -25z m-6519 2 c-10 -9 -11
-8 -5 6 3 10 9 15 12 12 3 -3 0 -11 -7 -18z m759 -7 c-6 -11 -13 -20 -16 -20
-2 0 0 9 6 20 6 11 13 20 16 20 2 0 0 -9 -6 -20z m-797 -65 c-15 -30 -29 -53
-31 -51 -4 5 46 106 53 106 3 0 -7 -25 -22 -55z m6581 5 c5 -17 4 -20 -2 -10
-5 8 -13 26 -16 40 -5 17 -4 20 2 10 5 -8 13 -26 16 -40z m874 -10 c0 -9 -3
-7 -8 5 -5 11 -8 29 -8 40 0 16 2 15 8 -5 4 -14 8 -32 8 -40z m-6695 5 c-3 -9
-8 -14 -10 -11 -3 3 -2 9 2 15 9 16 15 13 8 -4z m-29 -55 c-10 -16 -20 -28
-22 -26 -4 5 28 56 35 56 2 0 -4 -13 -13 -30z m5896 -65 c17 -49 30 -94 29
-99 0 -6 -13 26 -29 72 -38 110 -44 128 -36 121 3 -3 20 -46 36 -94z m848 30
c0 -16 -2 -15 -8 5 -4 14 -8 34 -8 45 0 16 2 15 8 -5 4 -14 8 -34 8 -45z
m-7517 2 c-10 -9 -11 -8 -5 6 3 10 9 15 12 12 3 -3 0 -11 -7 -18z m739 -27
c-6 -11 -13 -20 -16 -20 -2 0 0 9 6 20 6 11 13 20 16 20 2 0 0 -9 -6 -20z
m-759 -13 c-10 -9 -11 -8 -5 6 3 10 9 15 12 12 3 -3 0 -11 -7 -18z m7557 -57
c0 -22 -1 -22 -8 5 -4 17 -8 39 -8 50 0 16 2 15 8 -5 4 -14 8 -36 8 -50z
m-7577 13 c-12 -20 -14 -14 -5 12 4 9 9 14 11 11 3 -2 0 -13 -6 -23z m742 -8
c-3 -9 -8 -14 -10 -11 -3 3 -2 9 2 15 9 16 15 13 8 -4z m6844 -92 c-3 -10 -5
-2 -5 17 0 19 2 27 5 18 2 -10 2 -26 0 -35z m-7626 10 c-12 -20 -14 -14 -5 12
4 9 9 14 11 11 3 -2 0 -13 -6 -23z m702 -68 c-26 -52 -49 -93 -51 -91 -4 5 86
186 93 186 3 0 -16 -43 -42 -95z m6096 45 c0 -9 -4 -8 -9 5 -5 11 -9 27 -9 35
0 9 4 8 9 -5 5 -11 9 -27 9 -35z m-6828 -47 c-11 -21 -20 -35 -21 -31 0 12 33
78 38 74 2 -2 -6 -21 -17 -43z m7666 -10 c-3 -10 -5 -2 -5 17 0 19 2 27 5 18
2 -10 2 -26 0 -35z m-830 15 c-3 -8 -6 -5 -6 6 -1 11 2 17 5 13 3 -3 4 -12 1
-19z m-6866 -71 c-10 -9 -11 -8 -5 6 3 10 9 15 12 12 3 -3 0 -11 -7 -18z
m6886 -9 c-3 -8 -6 -5 -6 6 -1 11 2 17 5 13 3 -3 4 -12 1 -19z m820 -265 c-1
-54 -3 -12 -3 92 0 105 2 149 3 98 2 -51 2 -136 0 -190z m-7726 220 c-12 -20
-14 -14 -5 12 4 9 9 14 11 11 3 -2 0 -13 -6 -23z m6916 5 c-3 -8 -6 -5 -6 6
-1 11 2 17 5 13 3 -3 4 -12 1 -19z m-6194 -3 c-3 -9 -8 -14 -10 -11 -3 3 -2 9
2 15 9 16 15 13 8 -4z m6215 -90 c0 -16 -2 -15 -8 5 -4 14 -8 36 -8 50 0 22 1
22 8 -5 4 -16 8 -39 8 -50z m-6957 38 c-12 -20 -14 -14 -5 12 4 9 9 14 11 11
3 -2 0 -13 -6 -23z m720 0 c-12 -20 -14 -14 -5 12 4 9 9 14 11 11 3 -2 0 -13
-6 -23z m-741 -60 c-11 -17 -11 -17 -6 0 3 10 6 24 7 30 0 9 2 9 5 0 3 -7 0
-20 -6 -30z m701 -40 c-12 -20 -14 -14 -5 12 4 9 9 14 11 11 3 -2 0 -13 -6
-23z m6286 -20 c-3 -10 -5 -2 -5 17 0 19 2 27 5 18 2 -10 2 -26 0 -35z m-7003
3 c-3 -15 -8 -25 -11 -23 -2 3 -1 17 3 31 3 15 8 25 11 23 2 -3 1 -17 -3 -31z
m697 -37 c-5 -13 -10 -19 -10 -12 -1 15 10 45 15 40 3 -2 0 -15 -5 -28z m6316
-36 c-3 -10 -5 -2 -5 17 0 19 2 27 5 18 2 -10 2 -26 0 -35z m-7036 -4 c-5 -13
-10 -19 -10 -12 -1 15 10 45 15 40 3 -2 0 -15 -5 -28z m703 -23 c-3 -15 -8
-25 -11 -23 -2 3 -1 17 3 31 3 15 8 25 11 23 2 -3 1 -17 -3 -31z m6343 -379
c-1 -67 -3 -9 -3 128 0 138 2 192 3 122 2 -71 2 -183 0 -250z m-7060 341 c-3
-8 -6 -5 -6 6 -1 11 2 17 5 13 3 -3 4 -12 1 -19z m694 -44 c-5 -16 -10 -21
-10 -12 -1 18 10 51 15 45 2 -1 -1 -16 -5 -33z m-704 4 c-3 -8 -6 -5 -6 6 -1
11 2 17 5 13 3 -3 4 -12 1 -19z m-10 -60 c-3 -7 -5 -2 -5 12 0 14 2 19 5 13 2
-7 2 -19 0 -25z m7827 -134 c-4 -82 -10 -140 -12 -130 -5 25 9 289 15 283 2
-3 1 -72 -3 -153z m-7130 102 c-3 -21 -8 -35 -11 -32 -2 2 -1 20 3 40 3 21 8
35 11 32 2 -2 1 -20 -3 -40z m-707 -8 c-3 -8 -6 -5 -6 6 -1 11 2 17 5 13 3 -3
4 -12 1 -19z m-10 -75 c-3 -10 -5 -4 -5 12 0 17 2 24 5 18 2 -7 2 -21 0 -30z
m697 -22 c-4 -23 -9 -40 -11 -37 -3 3 -2 23 2 46 4 23 9 39 11 37 3 -2 2 -23
-2 -46z m-707 -38 c-3 -10 -5 -4 -5 12 0 17 2 24 5 18 2 -7 2 -21 0 -30z m690
-70 c-3 -10 -5 -4 -5 12 0 17 2 24 5 18 2 -7 2 -21 0 -30z m-700 -50 c-2 -16
-4 -5 -4 22 0 28 2 40 4 28 2 -13 2 -35 0 -50z m690 -20 c-3 -10 -5 -2 -5 17
0 19 2 27 5 18 2 -10 2 -26 0 -35z m-700 -120 c-2 -21 -4 -4 -4 37 0 41 2 58
4 38 2 -21 2 -55 0 -75z m7860 -5 c-2 -18 -4 -4 -4 32 0 36 2 50 4 33 2 -18 2
-48 0 -65z m-7174 -34 c-4 -60 -9 -100 -11 -90 -5 24 8 209 14 203 3 -2 1 -53
-3 -113z m6434 -156 c-1 -40 -3 -10 -3 67 0 77 1 110 3 73 2 -37 2 -100 0
-140z m730 15 c-2 -27 -3 -5 -3 47 0 52 1 74 3 48 2 -27 2 -69 0 -95z m-7850
-75 c-2 -24 -4 -7 -4 37 0 44 2 63 4 43 2 -21 2 -57 0 -80z m670 -35 c-3 -10
-5 -4 -5 12 0 17 2 24 5 18 2 -7 2 -21 0 -30z m6460 -65 c-2 -13 -4 -3 -4 22
0 25 2 35 4 23 2 -13 2 -33 0 -45z m-7120 -15 c-2 -16 -4 -5 -4 22 0 28 2 40
4 28 2 -13 2 -35 0 -50z m7840 -35 c-2 -18 -4 -4 -4 32 0 36 2 50 4 33 2 -18
2 -48 0 -65z m-710 -15 c-3 -10 -5 -4 -5 12 0 17 2 24 5 18 2 -7 2 -21 0 -30z
m-7109 -93 c0 -22 -1 -22 -8 5 -4 17 -8 41 -8 55 0 22 1 22 8 -5 4 -16 8 -41
8 -55z m7829 33 c-3 -10 -5 -4 -5 12 0 17 2 24 5 18 2 -7 2 -21 0 -30z m-710
-10 c-3 -10 -5 -4 -5 12 0 17 2 24 5 18 2 -7 2 -21 0 -30z m-6470 -85 c-2 -18
-4 -4 -4 32 0 36 2 50 4 33 2 -18 2 -48 0 -65z m6480 30 c-3 -7 -5 -2 -5 12 0
14 2 19 5 13 2 -7 2 -19 0 -25z m721 -43 c0 -16 -2 -15 -8 5 -4 14 -8 36 -8
50 0 22 1 22 8 -5 4 -16 8 -39 8 -50z m-7830 -50 c0 -16 -2 -15 -8 5 -4 14 -8
36 -8 50 0 22 1 22 8 -5 4 -16 8 -39 8 -50z m7130 0 c0 -16 -2 -15 -8 5 -4 14
-8 36 -8 50 0 22 1 22 8 -5 4 -16 8 -39 8 -50z m-6491 -27 c-2 -13 -4 -5 -4
17 -1 22 1 32 4 23 2 -10 2 -28 0 -40z m7200 20 c-3 -8 -6 -5 -6 6 -1 11 2 17
5 13 3 -3 4 -12 1 -19z m-700 -50 c-3 -7 -5 -2 -5 12 0 14 2 19 5 13 2 -7 2
-19 0 -25z m710 10 c-3 -8 -6 -5 -6 6 -1 11 2 17 5 13 3 -3 4 -12 1 -19z
m-7828 -38 c0 -9 -4 -8 -9 5 -5 11 -9 27 -9 35 0 9 4 8 9 -5 5 -11 9 -27 9
-35z m7850 -30 c0 -9 -4 -8 -9 5 -5 11 -9 27 -9 35 0 9 4 8 9 -5 5 -11 9 -27
9 -35z m-722 18 c-3 -8 -6 -5 -6 6 -1 11 2 17 5 13 3 -3 4 -12 1 -19z m-6500
-25 c-3 -10 -5 -4 -5 12 0 17 2 24 5 18 2 -7 2 -21 0 -30z m-620 -15 c-3 -8
-6 -5 -6 6 -1 11 2 17 5 13 3 -3 4 -12 1 -19z m7130 0 c-3 -8 -6 -5 -6 6 -1
11 2 17 5 13 3 -3 4 -12 1 -19z m732 -48 c0 -9 -4 -8 -9 5 -5 11 -9 27 -9 35
0 9 4 8 9 -5 5 -11 9 -27 9 -35z m-7232 3 c-3 -10 -5 -4 -5 12 0 17 2 24 5 18
2 -7 2 -21 0 -30z m6542 -98 c-1 -18 -27 59 -28 80 0 11 7 0 15 -25 7 -25 13
-49 13 -55z m-7140 45 c0 -10 -3 -8 -9 5 -12 27 -12 43 0 25 5 -8 9 -22 9 -30z
m7850 -15 c0 -5 -4 -3 -9 5 -5 8 -9 22 -9 30 0 16 17 -16 18 -35z m-7231 -40
c0 -16 -2 -15 -8 5 -4 14 -8 36 -8 50 0 22 1 22 8 -5 4 -16 8 -39 8 -50z
m-599 -10 c0 -5 -4 -3 -9 5 -5 8 -9 22 -9 30 0 16 17 -16 18 -35z m7850 -10
c0 -5 -4 -3 -9 5 -5 8 -9 22 -9 30 0 16 17 -16 18 -35z m-710 -25 c0 -10 -3
-8 -9 5 -12 27 -12 43 0 25 5 -8 9 -22 9 -30z m-7120 -20 c0 -10 -3 -8 -9 5
-12 27 -12 43 0 25 5 -8 9 -22 9 -30z m588 8 c-3 -8 -6 -5 -6 6 -1 11 2 17 5
13 3 -3 4 -12 1 -19z m7267 -28 c5 -17 4 -20 -2 -10 -5 8 -13 26 -16 40 -5 17
-4 20 2 10 5 -8 13 -26 16 -40z m-715 -20 c0 -10 -3 -8 -9 5 -12 27 -12 43 0
25 5 -8 9 -22 9 -30z m-6542 8 c-3 -8 -6 -5 -6 6 -1 11 2 17 5 13 3 -3 4 -12
1 -19z m-577 -23 c0 -5 -5 -3 -10 5 -5 8 -10 20 -10 25 0 6 5 3 10 -5 5 -8 10
-19 10 -25z m1927 -2 c-20 -2 -52 -2 -70 0 -17 2 0 4 38 4 39 0 53 -2 32 -4z
m293 -3 c29 -5 9 -6 -60 -2 -58 2 -107 6 -109 8 -8 7 124 3 169 -6z m-1621
-50 c0 -9 -4 -8 -9 5 -5 11 -9 27 -9 35 0 9 4 8 9 -5 5 -11 9 -27 9 -35z
m1209 43 c-10 -2 -28 -2 -40 0 -13 2 -5 4 17 4 22 1 32 -1 23 -4z m5336 -43
c5 -17 4 -20 -2 -10 -5 8 -13 26 -16 40 -5 17 -4 20 2 10 5 -8 13 -26 16 -40z
m-7124 5 c0 -5 -5 -3 -10 5 -5 8 -10 20 -10 25 0 6 5 3 10 -5 5 -8 10 -19 10
-25z m1675 25 c-16 -4 -39 -8 -50 -8 -16 0 -15 2 5 8 14 4 36 8 50 8 22 0 22
-1 -5 -8z m675 0 c20 -6 21 -8 5 -8 -11 0 -33 4 -50 8 -27 7 -27 8 -5 8 14 0
36 -4 50 -8z m5500 -35 c0 -5 -5 -3 -10 5 -5 8 -10 20 -10 25 0 6 5 3 10 -5 5
-8 10 -19 10 -25z m-6285 15 c-11 -5 -29 -8 -40 -8 -16 0 -15 2 5 8 34 11 60
11 35 0z m885 0 c20 -6 21 -8 5 -8 -11 0 -29 3 -40 8 -25 11 1 11 35 0z m75
-20 c13 -6 15 -9 5 -9 -8 0 -22 4 -30 9 -18 12 -2 12 25 0z m-2507 -25 c-3 -3
-9 2 -12 12 -6 14 -5 15 5 6 7 -7 10 -15 7 -18z m7852 -20 c0 -5 -5 -3 -10 5
-5 8 -10 20 -10 25 0 6 5 3 10 -5 5 -8 10 -19 10 -25z m-683 -102 c-5 -4 -57
114 -56 125 0 4 14 -22 30 -57 16 -35 28 -66 26 -68z m-5842 107 c-27 -12 -43
-12 -25 0 8 5 22 9 30 9 10 0 8 -3 -5 -9z m1315 0 c18 -12 2 -12 -25 0 -13 6
-15 9 -5 9 8 0 22 -4 30 -9z m-1370 -20 c-8 -5 -19 -10 -25 -10 -5 0 -3 5 5
10 8 5 20 10 25 10 6 0 3 -5 -5 -10z m1420 0 c8 -5 11 -10 5 -10 -5 0 -17 5
-25 10 -8 5 -10 10 -5 10 6 0 17 -5 25 -10z m-2666 -16 c3 -8 2 -12 -4 -9 -6
3 -10 10 -10 16 0 14 7 11 14 -7z m7846 -19 c0 -5 -5 -3 -10 5 -5 8 -10 20
-10 25 0 6 5 3 10 -5 5 -8 10 -19 10 -25z m-6650 15 c-8 -5 -19 -10 -25 -10
-5 0 -3 5 5 10 8 5 20 10 25 10 6 0 3 -5 -5 -10z m-621 -50 c0 -10 -3 -8 -9 5
-12 27 -12 43 0 25 5 -8 9 -22 9 -30z m566 30 c-3 -5 -12 -10 -18 -10 -7 0 -6
4 3 10 19 12 23 12 15 0z m1630 -8 c-3 -3 -11 0 -18 7 -9 10 -8 11 6 5 10 -3
15 -9 12 -12z m-1666 -6 c-10 -9 -149 -76 -149 -71 0 6 131 74 144 75 5 0 7
-2 5 -4z m1761 -31 c39 -19 70 -38 70 -40 0 -5 -139 62 -149 71 -13 12 18 0
79 -31z m4994 19 c3 -8 2 -12 -4 -9 -6 3 -10 10 -10 16 0 14 7 11 14 -7z
m-7826 -19 c-3 -3 -9 2 -12 12 -6 14 -5 15 5 6 7 -7 10 -15 7 -18z m562 -40
c0 -5 -5 -3 -10 5 -5 8 -10 20 -10 25 0 6 5 3 10 -5 5 -8 10 -19 10 -25z
m-519 -30 l10 -20 -16 20 c-9 11 -21 29 -26 40 l-10 20 16 -20 c9 -11 21 -29
26 -40z m7113 -22 c20 -40 34 -73 31 -73 -5 0 -75 136 -75 146 0 12 6 1 44
-73z m705 22 c0 -5 -6 1 -14 15 -8 14 -14 30 -14 35 0 6 6 -1 14 -15 8 -14 14
-29 14 -35z m-6949 20 c0 -2 -13 -11 -30 -20 -38 -19 -40 -11 -2 9 31 17 32
18 32 11z m2025 -13 c-3 -3 -11 0 -18 7 -9 10 -8 11 6 5 10 -3 15 -9 12 -12z
m-2095 -27 c0 -2 -10 -9 -22 -15 -22 -11 -22 -10 -4 4 21 17 26 19 26 11z
m2180 -21 c0 -2 -9 0 -20 6 -11 6 -20 13 -20 16 0 2 9 0 20 -6 11 -6 20 -13
20 -16z m4870 -29 c0 -5 -5 -3 -10 5 -5 8 -10 20 -10 25 0 6 5 3 10 -5 5 -8
10 -19 10 -25z m-7281 -30 c0 -5 -6 1 -14 15 -8 14 -14 30 -14 35 0 6 6 -1 14
-15 8 -14 14 -29 14 -35z m7301 -20 c0 -5 -5 -3 -10 5 -5 8 -10 20 -10 25 0 6
5 3 10 -5 5 -8 10 -19 10 -25z m-695 -15 c9 -16 13 -30 11 -30 -3 0 -12 14
-21 30 -9 17 -13 30 -11 30 3 0 12 -13 21 -30z m709 -16 c3 -8 2 -12 -4 -9 -6
3 -10 10 -10 16 0 14 7 11 14 -7z m-665 -93 l-2 -36 -6 40 c-4 22 -10 47 -15
55 -4 8 0 6 8 -4 9 -11 15 -36 15 -55z m-7034 9 c27 -27 47 -50 44 -50 -3 0
-27 23 -54 50 -27 28 -47 50 -44 50 3 0 27 -22 54 -50z m7734 -5 c0 -5 -6 1
-14 15 -8 14 -14 30 -14 35 0 6 6 -1 14 -15 8 -14 14 -29 14 -35z m31 -70 c0
-5 -5 -3 -10 5 -5 8 -10 20 -10 25 0 6 5 3 10 -5 5 -8 10 -19 10 -25z m-700
-30 c0 -5 -5 -3 -10 5 -5 8 -10 20 -10 25 0 6 5 3 10 -5 5 -8 10 -19 10 -25z
m720 -20 c0 -5 -5 -3 -10 5 -5 8 -10 20 -10 25 0 6 5 3 10 -5 5 -8 10 -19 10
-25z m-7600 -21 c0 -2 -9 0 -20 6 -11 6 -20 13 -20 16 0 2 9 0 20 -6 11 -6 20
-13 20 -16z m6900 -9 c0 -5 -5 -3 -10 5 -5 8 -10 20 -10 25 0 6 5 3 10 -5 5
-8 10 -19 10 -25z m720 -20 c0 -5 -5 -3 -10 5 -5 8 -10 20 -10 25 0 6 5 3 10
-5 5 -8 10 -19 10 -25z m-7565 -3 c-3 -3 -11 0 -18 7 -9 10 -8 11 6 5 10 -3
15 -9 12 -12z m6879 -62 c3 -14 -3 -7 -13 15 -11 22 -20 45 -20 50 0 15 26
-37 33 -65z m-6834 50 c8 -5 11 -10 5 -10 -5 0 -17 5 -25 10 -8 5 -10 10 -5
10 6 0 17 -5 25 -10z m812 -7 c-40 -2 -103 -2 -140 0 -37 2 -4 3 73 3 77 0
107 -2 67 -3z m6728 -28 c0 -5 -5 -3 -10 5 -5 8 -10 20 -10 25 0 6 5 3 10 -5
5 -8 10 -19 10 -25z m-7485 15 c13 -6 15 -9 5 -9 -8 0 -22 4 -30 9 -18 12 -2
12 25 0z m494 6 c-2 -2 -31 -6 -64 -9 -39 -4 -50 -3 -30 2 31 9 102 14 94 7z
m449 -3 c-10 -2 -28 -2 -40 0 -13 2 -5 4 17 4 22 1 32 -1 23 -4z m55 -10 c-7
-2 -19 -2 -25 0 -7 3 -2 5 12 5 14 0 19 -2 13 -5z m-936 -9 c-3 -3 -12 -4 -19
-1 -8 3 -5 6 6 6 11 1 17 -2 13 -5z m263 -4 c-14 -4 -34 -8 -45 -8 -16 0 -15
2 5 8 14 4 34 8 45 8 16 0 15 -2 -5 -8z m743 3 c-7 -2 -19 -2 -25 0 -7 3 -2 5
12 5 14 0 19 -2 13 -5z m-950 -10 c-7 -2 -21 -2 -30 0 -10 3 -4 5 12 5 17 0
24 -2 18 -5z m994 1 c-3 -3 -12 -4 -19 -1 -8 3 -5 6 6 6 11 1 17 -2 13 -5z
m-870 -10 c-3 -3 -12 -4 -19 -1 -8 3 -5 6 6 6 11 1 17 -2 13 -5z m948 -4 c25
-11 -1 -11 -35 0 -20 6 -21 8 -5 8 11 0 29 -3 40 -8z m6329 -60 c3 -14 -3 -7
-13 15 -11 22 -20 45 -20 50 0 15 26 -37 33 -65z m-714 5 c0 -5 -5 -3 -10 5
-5 8 -10 20 -10 25 0 6 5 3 10 -5 5 -8 10 -19 10 -25z m-5480 15 c8 -5 11 -10
5 -10 -5 0 -17 5 -25 10 -8 5 -10 10 -5 10 6 0 17 -5 25 -10z m60 -20 c8 -5
11 -10 5 -10 -5 0 -17 5 -25 10 -8 5 -10 10 -5 10 6 0 17 -5 25 -10z m6159
-75 c0 -5 -4 -3 -9 5 -5 8 -9 22 -9 30 0 16 17 -16 18 -35z m-684 -75 c19 -57
35 -109 34 -114 0 -6 -16 34 -35 89 -44 127 -48 141 -40 134 3 -3 22 -53 41
-109z m-5325 90 c8 -5 11 -10 5 -10 -5 0 -17 5 -25 10 -8 5 -10 10 -5 10 6 0
17 -5 25 -10z m45 -20 c3 -6 -1 -7 -9 -4 -18 7 -21 14 -7 14 6 0 13 -4 16 -10z
m40 -20 c3 -6 -1 -7 -9 -4 -18 7 -21 14 -7 14 6 0 13 -4 16 -10z m5945 -25 c0
-5 -5 -3 -10 5 -5 8 -10 20 -10 25 0 6 5 3 10 -5 5 -8 10 -19 10 -25z m-5905
5 c3 -6 -1 -7 -9 -4 -18 7 -21 14 -7 14 6 0 13 -4 16 -10z m75 -46 c0 -2 -9 0
-20 6 -11 6 -20 13 -20 16 0 2 9 0 20 -6 11 -6 20 -13 20 -16z m5849 -19 c0
-5 -4 -3 -9 5 -5 8 -9 22 -9 30 0 16 17 -16 18 -35z m-5779 -21 c0 -2 -9 0
-20 6 -11 6 -20 13 -20 16 0 2 9 0 20 -6 11 -6 20 -13 20 -16z m5799 -39 c0
-5 -4 -3 -9 5 -5 8 -9 22 -9 30 0 16 17 -16 18 -35z m-4419 15 c6 -11 8 -20 6
-20 -3 0 -10 9 -16 20 -6 11 -8 20 -6 20 3 0 10 -9 16 -20z m4439 -80 c0 -9
-4 -8 -9 5 -5 11 -9 27 -9 35 0 9 4 8 9 -5 5 -11 9 -27 9 -35z m-4374 -30 c9
-16 13 -30 11 -30 -3 0 -12 14 -21 30 -9 17 -13 30 -11 30 3 0 12 -13 21 -30z
m3674 -20 c0 -9 -4 -8 -9 5 -5 11 -9 27 -9 35 0 9 4 8 9 -5 5 -11 9 -27 9 -35z
m720 -20 c0 -9 -4 -8 -9 5 -5 11 -9 27 -9 35 0 9 4 8 9 -5 5 -11 9 -27 9 -35z
m-712 -22 c-3 -8 -6 -5 -6 6 -1 11 2 17 5 13 3 -3 4 -12 1 -19z m-3621 -49
c14 -28 24 -53 22 -55 -2 -2 -16 21 -31 51 -15 30 -25 55 -22 55 3 0 16 -23
31 -51z m4348 16 c5 -22 4 -26 -4 -15 -5 8 -10 24 -10 34 0 26 6 18 14 -19z
m-5489 -55 c38 -38 67 -70 64 -70 -2 0 -36 32 -74 70 -38 39 -67 70 -64 70 2
0 36 -31 74 -70z m4793 -20 c0 -9 -3 -7 -8 5 -5 11 -8 29 -8 40 0 16 2 15 8
-5 4 -14 8 -32 8 -40z m721 -20 c0 -9 -4 -8 -9 5 -5 11 -9 27 -9 35 0 9 4 8 9
-5 5 -11 9 -27 9 -35z m-701 -60 c0 -9 -3 -7 -8 5 -5 11 -8 29 -8 40 0 16 2
15 8 -5 4 -14 8 -32 8 -40z m-3609 -5 c0 -5 -6 1 -14 15 -8 14 -14 30 -14 35
0 6 6 -1 14 -15 8 -14 14 -29 14 -35z m4329 -30 c0 -16 -2 -15 -8 5 -4 14 -8
34 -8 45 0 16 2 15 8 -5 4 -14 8 -34 8 -45z m-5368 -32 c0 -8 -9 0 -50 45
l-45 47 48 -45 c26 -24 47 -45 47 -47z m4668 -18 c0 -16 -2 -15 -8 5 -4 14 -8
34 -8 45 0 16 2 15 8 -5 4 -14 8 -34 8 -45z m-3598 10 c0 -5 -5 -3 -10 5 -5 8
-10 20 -10 25 0 6 5 3 10 -5 5 -8 10 -19 10 -25z m4318 -75 c0 -22 -1 -22 -8
5 -4 17 -8 41 -8 55 0 22 1 22 8 -5 4 -16 8 -41 8 -55z m-700 -25 c0 -16 -2
-15 -8 5 -4 14 -8 34 -8 45 0 16 2 15 8 -5 4 -14 8 -34 8 -45z m-3570 -30 c31
-89 62 -200 61 -216 0 -8 -13 29 -29 81 -15 52 -35 115 -44 140 -15 43 -20 68
-12 59 2 -2 13 -31 24 -64z m4279 -47 c-2 -13 -4 -5 -4 17 -1 22 1 32 4 23 2
-10 2 -28 0 -40z m-689 -23 c0 -16 -2 -15 -8 5 -4 14 -8 34 -8 45 0 16 2 15 8
-5 4 -14 8 -34 8 -45z m699 -82 c-2 -16 -4 -3 -4 27 0 30 2 43 4 28 2 -16 2
-40 0 -55z m-684 -8 c4 -34 3 -42 -3 -25 -8 25 -13 87 -6 79 2 -2 6 -26 9 -54z
m25 -165 c0 -16 -3 -11 -9 15 -4 22 -8 51 -7 65 0 16 3 11 9 -15 4 -22 8 -51
7 -65z m-4468 70 c6 -11 8 -20 6 -20 -3 0 -10 9 -16 20 -6 11 -8 20 -6 20 3 0
10 -9 16 -20z m907 -2 c-3 -8 -6 -5 -6 6 -1 11 2 17 5 13 3 -3 4 -12 1 -19z
m10 -50 c-3 -7 -5 -2 -5 12 0 14 2 19 5 13 2 -7 2 -19 0 -25z m-859 -53 c-3
-3 -9 2 -12 12 -6 14 -5 15 5 6 7 -7 10 -15 7 -18z m4419 -57 c-2 -13 -4 -5
-4 17 -1 22 1 32 4 23 2 -10 2 -28 0 -40z m-4399 17 c-3 -3 -9 2 -12 12 -6 14
-5 15 5 6 7 -7 10 -15 7 -18z m20 -40 c-3 -3 -9 2 -12 12 -6 14 -5 15 5 6 7
-7 10 -15 7 -18z m5029 -127 c-2 -29 -3 -8 -3 47 0 55 1 79 3 53 2 -26 2 -71
0 -100z m-4170 100 c-3 -7 -5 -2 -5 12 0 14 2 19 5 13 2 -7 2 -19 0 -25z
m3530 -25 c-3 -10 -5 -2 -5 17 0 19 2 27 5 18 2 -10 2 -26 0 -35z m-4362 1
c15 -37 19 -51 10 -43 -8 9 -35 79 -30 79 2 0 12 -16 20 -36z m858 -69 c4 -25
4 -33 -2 -20 -4 11 -11 38 -14 60 -4 25 -4 33 2 20 4 -11 11 -38 14 -60z
m3514 -52 c-2 -16 -4 -5 -4 22 0 28 2 40 4 28 2 -13 2 -35 0 -50z m-4318 -13
c0 -8 -6 0 -14 19 -8 18 -15 36 -15 40 1 13 29 -45 29 -59z m829 -40 c0 -9 -3
-7 -8 5 -5 11 -8 29 -8 40 0 16 2 15 8 -5 4 -14 8 -32 8 -40z m4109 -57 c-2
-21 -4 -6 -4 32 0 39 2 55 4 38 2 -18 2 -50 0 -70z m-610 0 c-2 -16 -4 -3 -4
27 0 30 2 43 4 28 2 -16 2 -40 0 -55z m-4292 -14 c5 -42 4 -41 -10 11 -17 65
-17 70 -5 49 5 -9 12 -36 15 -60z m852 -153 c-3 -10 -57 178 -56 196 0 7 14
-32 30 -87 16 -55 28 -104 26 -109z m-829 34 c0 -22 -1 -22 -8 5 -4 17 -8 39
-8 50 0 16 2 15 8 -5 4 -14 8 -36 8 -50z m4279 -102 c-2 -29 -3 -6 -3 52 0 58
1 81 3 53 2 -29 2 -77 0 -105z m590 95 c-3 -10 -5 -2 -5 17 0 19 2 27 5 18 2
-10 2 -26 0 -35z m-4842 -99 c9 -41 15 -78 12 -80 -2 -2 -9 22 -16 53 -7 32
-15 68 -18 81 -3 12 -3 22 0 22 3 0 13 -34 22 -76z m4832 14 c-2 -13 -4 -3 -4
22 0 25 2 35 4 23 2 -13 2 -33 0 -45z m-3999 -38 c0 -8 -6 1 -13 20 -7 19 -13
42 -13 50 0 8 6 -1 13 -20 7 -19 13 -42 13 -50z m3987 -80 c-4 -34 -9 -59 -12
-57 -2 3 -1 33 3 66 4 34 9 60 11 57 3 -3 2 -32 -2 -66z m-3956 -15 c0 -5 -4
-3 -9 5 -5 8 -9 22 -9 30 0 16 17 -16 18 -35z m-831 -30 c0 -16 -2 -15 -8 5
-11 34 -11 60 0 35 5 -11 8 -29 8 -40z m4229 -78 c-2 -23 -3 -1 -3 48 0 50 1
68 3 42 2 -26 2 -67 0 -90z m-3378 48 c0 -5 -4 -3 -9 5 -5 8 -9 22 -9 30 0 16
17 -16 18 -35z m-831 -50 c0 -16 -2 -15 -8 5 -11 34 -11 60 0 35 5 -11 8 -29
8 -40z m4747 -10 c-4 -25 -9 -44 -12 -41 -2 2 -1 25 2 51 4 25 9 44 12 41 2
-2 1 -25 -2 -51z m-3896 0 c0 -5 -4 -3 -9 5 -5 8 -9 22 -9 30 0 16 17 -16 18
-35z m-810 -145 c0 -8 -9 14 -20 50 -10 36 -19 70 -18 75 1 15 39 -108 38
-125z m841 56 c-1 -6 -7 4 -15 23 -8 18 -15 38 -15 45 1 6 7 -4 15 -23 8 -18
15 -38 15 -45z m3317 -143 c-2 -32 -3 -8 -3 52 0 61 1 87 3 58 2 -29 2 -78 0
-110z m528 107 c-4 -23 -9 -39 -11 -37 -3 2 -2 23 2 46 4 23 9 40 11 37 3 -3
2 -23 -2 -46z m-3801 -80 c3 -14 -2 -7 -13 15 -10 22 -21 51 -25 65 -3 14 2 7
13 -15 10 -22 21 -51 25 -65z m-859 -16 c9 -31 14 -58 12 -60 -2 -2 -9 15 -16
38 -7 24 -15 51 -17 61 -3 9 -3 17 0 17 2 0 12 -25 21 -56z m4639 -8 c-3 -21
-8 -35 -11 -32 -2 2 -1 20 3 40 3 21 8 35 11 32 2 -2 1 -20 -3 -40z m-3750
-56 c5 -17 4 -20 -2 -10 -5 8 -13 26 -16 40 -5 17 -4 20 2 10 5 -8 13 -26 16
-40z m3730 -44 c-3 -21 -8 -35 -11 -32 -2 2 -1 20 3 40 3 21 8 35 11 32 2 -2
1 -20 -3 -40z m-4575 -41 c0 -5 -4 -3 -9 5 -5 8 -9 22 -9 30 0 16 17 -16 18
-35z m908 -72 c-3 -2 -12 15 -22 39 -28 69 -27 78 0 19 14 -29 24 -55 22 -58z
m3170 20 c-2 -16 -4 -3 -4 27 0 30 2 43 4 28 2 -16 2 -40 0 -55z m-4058 -8 c0
-5 -4 -3 -9 5 -5 8 -9 22 -9 30 0 16 17 -16 18 -35z m4535 11 c-3 -15 -8 -25
-11 -23 -2 3 -1 17 3 31 3 15 8 25 11 23 2 -3 1 -17 -3 -31z m-4515 -71 c0 -5
-4 -3 -9 5 -5 8 -9 22 -9 30 0 16 17 -16 18 -35z m968 -172 c-5 -4 -97 194
-96 205 0 4 23 -40 50 -97 27 -57 48 -106 46 -108z m3060 140 c-2 -16 -4 -5
-4 22 0 28 2 40 4 28 2 -13 2 -35 0 -50z m467 23 c-3 -15 -8 -25 -11 -23 -2 3
-1 17 3 31 3 15 8 25 11 23 2 -3 1 -17 -3 -31z m-4450 -110 c20 -55 34 -101
32 -103 -4 -4 -76 187 -76 202 0 16 8 -1 44 -99z m4430 30 c-3 -15 -8 -25 -11
-23 -2 3 -1 17 3 31 3 15 8 25 11 23 2 -3 1 -17 -3 -31z m-460 -80 c-4 -37 -9
-64 -12 -62 -2 3 -1 35 3 71 4 37 9 65 11 62 3 -2 2 -34 -2 -71z m437 3 c-5
-13 -10 -19 -10 -12 -1 15 10 45 15 40 3 -2 0 -15 -5 -28z m-3463 -44 c-3 -3
-9 2 -12 12 -6 14 -5 15 5 6 7 -7 10 -15 7 -18z m3446 -19 c-3 -15 -8 -25 -11
-23 -2 3 -1 17 3 31 3 15 8 25 11 23 2 -3 1 -17 -3 -31z m-4325 -66 c0 -8 -6
0 -14 19 -8 18 -15 36 -15 40 1 13 29 -45 29 -59z m3888 3 c-3 -10 -5 -4 -5
12 0 17 2 24 5 18 2 -7 2 -21 0 -30z m-2918 -88 c23 -44 34 -71 25 -60 -18 23
-91 165 -77 150 6 -5 29 -46 52 -90z m2908 18 c-3 -10 -5 -2 -5 17 0 19 2 27
5 18 2 -10 2 -26 0 -35z m-3820 -80 c-3 -2 -12 15 -22 39 -28 69 -27 78 0 19
14 -29 24 -55 22 -58z m4224 80 c-12 -20 -14 -14 -5 12 4 9 9 14 11 11 3 -2 0
-13 -6 -23z m-420 -93 c-5 -25 -9 -35 -10 -24 -1 28 11 92 16 79 1 -6 -1 -30
-6 -55z m380 -21 c-5 -13 -10 -19 -10 -12 -1 15 10 45 15 40 3 -2 0 -15 -5
-28z m-4122 -94 c0 -5 -11 10 -24 35 -13 25 -24 50 -24 55 0 6 11 -10 24 -35
13 -25 24 -49 24 -55z m931 45 c6 -11 8 -20 6 -20 -3 0 -10 9 -16 20 -6 11 -8
20 -6 20 3 0 10 -9 16 -20z m2794 -29 c-4 -23 -9 -40 -11 -37 -3 3 -2 23 2 46
4 23 9 39 11 37 3 -2 2 -23 -2 -46z m370 0 c-9 -23 -18 -40 -20 -38 -2 2 4 22
13 45 9 23 18 40 20 38 2 -2 -4 -22 -13 -45z m-3114 -51 c6 -11 8 -20 6 -20
-3 0 -10 9 -16 20 -6 11 -8 20 -6 20 3 0 10 -9 16 -20z m-911 -107 c28 -57 49
-103 46 -103 -5 0 -105 196 -105 206 0 13 7 0 59 -103z m3635 53 c-3 -21 -8
-35 -11 -32 -2 2 -1 20 3 40 3 21 8 35 11 32 2 -2 1 -20 -3 -40z m342 -13 c-8
-15 -15 -25 -16 -21 0 12 23 58 27 54 3 -2 -2 -17 -11 -33z m-359 -55 c-3 -8
-6 -5 -6 6 -1 11 2 17 5 13 3 -3 4 -12 1 -19z m328 -24 c-8 -20 -15 -39 -15
-42 0 -3 -2 -3 -5 0 -6 5 22 78 30 78 3 0 -2 -16 -10 -36z m-338 -16 c-3 -8
-6 -5 -6 6 -1 11 2 17 5 13 3 -3 4 -12 1 -19z m-13 -67 c-4 -17 -9 -30 -11
-27 -3 2 -2 19 2 36 9 41 17 33 9 -9z m311 -7 c-8 -20 -15 -39 -15 -42 0 -3
-2 -3 -5 0 -6 5 22 78 30 78 3 0 -2 -16 -10 -36z m-3820 -34 c14 -27 23 -50
20 -50 -2 0 -16 23 -30 50 -14 28 -23 50 -20 50 2 0 16 -22 30 -50z m3489 -34
c-3 -15 -8 -25 -11 -23 -2 3 -1 17 3 31 3 15 8 25 11 23 2 -3 1 -17 -3 -31z
m299 -1 c-3 -9 -8 -14 -10 -11 -3 3 -2 9 2 15 9 16 15 13 8 -4z m-3743 -45 c6
-11 8 -20 6 -20 -3 0 -10 9 -16 20 -6 11 -8 20 -6 20 3 0 10 -9 16 -20z m3417
-52 c-3 -8 -6 -5 -6 6 -1 11 2 17 5 13 3 -3 4 -12 1 -19z m-3377 -18 c6 -11 8
-20 6 -20 -3 0 -10 9 -16 20 -6 11 -8 20 -6 20 3 0 10 -9 16 -20z m3364 -34
c-3 -15 -8 -25 -11 -23 -2 3 -1 17 3 31 3 15 8 25 11 23 2 -3 1 -17 -3 -31z
m240 -46 c-15 -28 -29 -49 -31 -47 -4 5 47 97 53 97 3 0 -7 -23 -22 -50z
m-3554 0 c6 -11 8 -20 6 -20 -3 0 -10 9 -16 20 -6 11 -8 20 -6 20 3 0 10 -9
16 -20z m3291 -21 c-5 -13 -10 -19 -10 -12 -1 15 10 45 15 40 3 -2 0 -15 -5
-28z m219 -59 c-6 -11 -13 -20 -16 -20 -2 0 0 9 6 20 6 11 13 20 16 20 2 0 0
-9 -6 -20z m-250 -45 c-16 -47 -23 -40 -8 8 6 20 13 35 16 33 2 -3 -1 -21 -8
-41z m190 -55 c-6 -11 -13 -20 -16 -20 -2 0 0 9 6 20 6 11 13 20 16 20 2 0 0
-9 -6 -20z m-1735 -363 c16 -15 -68 29 -90 48 -11 9 3 4 30 -11 28 -15 55 -32
60 -37z m60 -35 c-3 -3 -11 0 -18 7 -9 10 -8 11 6 5 10 -3 15 -9 12 -12z
m-1305 -27 c13 -14 21 -25 18 -25 -2 0 -15 11 -28 25 -13 14 -21 25 -18 25 2
0 15 -11 28 -25z m1390 -5 c8 -5 11 -10 5 -10 -5 0 -17 5 -25 10 -8 5 -10 10
-5 10 6 0 17 -5 25 -10z m50 -20 c8 -5 11 -10 5 -10 -5 0 -17 5 -25 10 -8 5
-10 10 -5 10 6 0 17 -5 25 -10z m50 -20 c8 -5 11 -10 5 -10 -5 0 -17 5 -25 10
-8 5 -10 10 -5 10 6 0 17 -5 25 -10z m60 -20 c18 -12 2 -12 -25 0 -13 6 -15 9
-5 9 8 0 22 -4 30 -9z m65 -20 c13 -6 15 -9 5 -9 -8 0 -22 4 -30 9 -18 12 -2
12 25 0z m85 -20 c20 -6 21 -8 5 -8 -11 0 -29 3 -40 8 -25 11 1 11 35 0z m73
-17 c-7 -2 -19 -2 -25 0 -7 3 -2 5 12 5 14 0 19 -2 13 -5z m500 0 c-7 -2 -19
-2 -25 0 -7 3 -2 5 12 5 14 0 19 -2 13 -5z m-435 -10 c-10 -2 -26 -2 -35 0
-10 3 -2 5 17 5 19 0 27 -2 18 -5z m380 0 c-10 -2 -26 -2 -35 0 -10 3 -2 5 17
5 19 0 27 -2 18 -5z m-150 -10 c-32 -2 -84 -2 -115 0 -32 2 -6 3 57 3 63 0 89
-1 58 -3z m-1613 -218 l20 -16 -20 10 c-11 5 -29 17 -40 26 l-20 16 20 -10
c11 -5 29 -17 40 -26z m1735 30 c0 -2 -10 -9 -22 -15 -22 -11 -22 -10 -4 4 21
17 26 19 26 11z m-80 -50 c0 -2 -13 -11 -30 -20 -38 -19 -40 -11 -2 9 31 17
32 18 32 11z m-1570 -31 c0 -2 -9 0 -20 6 -11 6 -20 13 -20 16 0 2 9 0 20 -6
11 -6 20 -13 20 -16z m35 -14 c3 -6 -1 -7 -9 -4 -18 7 -21 14 -7 14 6 0 13 -4
16 -10z m1465 6 c0 -2 -7 -7 -16 -10 -8 -3 -12 -2 -9 4 6 10 25 14 25 6z
m-1425 -26 c3 -6 -1 -7 -9 -4 -18 7 -21 14 -7 14 6 0 13 -4 16 -10z m1385 6
c0 -2 -7 -7 -16 -10 -8 -3 -12 -2 -9 4 6 10 25 14 25 6z m-1340 -26 c8 -5 11
-10 5 -10 -5 0 -17 5 -25 10 -8 5 -10 10 -5 10 6 0 17 -5 25 -10z m1280 -5
c-14 -8 -29 -14 -35 -14 -5 0 1 6 15 14 14 8 30 14 35 14 6 0 -1 -6 -15 -14z
m-1235 -15 c3 -6 -1 -7 -9 -4 -18 7 -21 14 -7 14 6 0 13 -4 16 -10z m50 -20
c3 -6 -1 -7 -9 -4 -18 7 -21 14 -7 14 6 0 13 -4 16 -10z m55 -20 c8 -5 11 -10
5 -10 -5 0 -17 5 -25 10 -8 5 -10 10 -5 10 6 0 17 -5 25 -10z m990 0 c-8 -5
-19 -10 -25 -10 -5 0 -3 5 5 10 8 5 20 10 25 10 6 0 3 -5 -5 -10z m-925 -20
c13 -6 15 -9 5 -9 -8 0 -22 4 -30 9 -18 12 -2 12 25 0z m865 0 c-8 -5 -22 -9
-30 -9 -10 0 -8 3 5 9 27 12 43 12 25 0z m-785 -20 c13 -5 14 -9 5 -9 -8 0
-24 4 -35 9 -13 5 -14 9 -5 9 8 0 24 -4 35 -9z m710 0 c-11 -5 -27 -9 -35 -9
-9 0 -8 4 5 9 11 5 27 9 35 9 9 0 8 -4 -5 -9z m-605 -20 c20 -6 21 -8 5 -8
-11 0 -33 4 -50 8 -27 7 -27 8 -5 8 14 0 36 -4 50 -8z m520 0 c-14 -4 -36 -8
-50 -8 -22 0 -22 1 5 8 17 4 39 8 50 8 16 0 15 -2 -5 -8z m-397 -17 c-13 -2
-33 -2 -45 0 -13 2 -3 4 22 4 25 0 35 -2 23 -4z m280 0 c-13 -2 -33 -2 -45 0
-13 2 -3 4 22 4 25 0 35 -2 23 -4z m-115 -10 c-27 -2 -69 -2 -95 0 -27 2 -5 3
47 3 52 0 74 -1 48 -3z"/>
<path d="M6220 11385 c19 -19 36 -35 39 -35 3 0 -10 16 -29 35 -19 19 -36 35
-39 35 -3 0 10 -16 29 -35z"/>
<path d="M1909 11193 l-24 -28 28 24 c25 23 32 31 24 31 -2 0 -14 -12 -28 -27z"/>
<path d="M3705 7232 c33 -34 61 -62 63 -62 9 0 -43 58 -81 89 -32 26 -28 20
18 -27z"/>
<path d="M5740 3225 c13 -14 26 -25 28 -25 3 0 -5 11 -18 25 -13 14 -26 25
-28 25 -3 0 5 -11 18 -25z"/>
<path d="M1799 11933 c-13 -15 -12 -15 9 -4 23 12 28 21 13 21 -5 0 -15 -7
-22 -17z"/>
<path d="M3218 6324 c6 -11 19 -27 28 -35 16 -13 16 -12 6 7 -6 11 -19 27 -28
35 -16 13 -16 12 -6 -7z"/>
</g>
</svg>
