<?xml version="1.0" standalone="no"?>
<!DOCTYPE svg PUBLIC "-//W3C//DTD SVG 20010904//EN"
 "http://www.w3.org/TR/2001/REC-SVG-20010904/DTD/svg10.dtd">
<svg version="1.0" xmlns="http://www.w3.org/2000/svg"
 width="640.000000pt" height="1280.000000pt" viewBox="0 0 640.000000 1280.000000"
 preserveAspectRatio="xMidYMid meet">
<metadata>
Created by potrace 1.15, written by Peter Selinger 2001-2017
</metadata>
<g transform="translate(0.000000,1280.000000) scale(0.100000,-0.100000)"
fill="#000000" stroke="none">
<path d="M1486 12778 c-12 -20 -12 -43 0 -163 20 -211 34 -359 44 -475 6 -58
14 -152 20 -210 6 -58 19 -202 30 -320 11 -118 24 -262 30 -320 6 -58 15 -154
20 -215 5 -60 14 -157 20 -215 6 -58 15 -154 20 -215 5 -60 14 -157 20 -215 6
-58 19 -202 30 -320 11 -118 24 -262 30 -320 6 -58 15 -154 20 -215 5 -60 14
-157 20 -215 6 -58 19 -202 30 -320 53 -568 61 -652 70 -750 6 -58 15 -154 20
-215 5 -60 14 -157 20 -215 6 -58 19 -202 30 -320 11 -118 24 -262 30 -320 6
-58 15 -154 20 -215 5 -60 14 -157 20 -215 6 -58 15 -154 20 -215 5 -60 14
-157 20 -215 6 -58 19 -202 30 -320 11 -118 24 -262 30 -320 6 -58 15 -154 20
-215 5 -60 14 -157 20 -215 6 -58 19 -202 30 -320 44 -473 59 -640 70 -750 19
-201 29 -314 30 -336 0 -19 -49 -5 -627 173 -345 106 -631 193 -636 193 -5 0
-7 -6 -5 -14 2 -7 183 -327 402 -710 342 -597 397 -699 385 -710 -8 -8 -309
-215 -669 -460 -360 -246 -656 -451 -658 -456 -5 -13 -35 -8 822 -139 428 -66
781 -122 784 -125 3 -3 0 -77 -6 -163 -26 -362 -102 -1381 -105 -1420 -3 -28
-1 -43 7 -43 6 0 144 123 307 273 162 149 431 397 597 549 l301 278 598 -555
c329 -305 601 -555 606 -555 10 0 13 -46 -51 839 -38 522 -54 795 -47 797 5 2
357 55 780 119 838 125 825 123 825 134 0 4 -301 214 -670 467 -456 313 -668
463 -664 473 2 8 184 326 404 707 220 381 400 695 400 698 0 3 -6 6 -14 6 -10
0 -1195 -357 -1245 -375 -16 -6 -13 37 29 475 6 58 15 155 20 215 5 61 14 157
20 215 6 58 15 153 20 213 6 59 14 155 20 215 5 59 14 154 20 212 6 58 15 155
20 215 5 61 14 157 20 215 6 58 15 155 20 215 5 61 14 157 20 215 6 58 15 155
20 215 25 270 30 326 40 425 6 58 15 155 20 215 5 61 14 157 20 215 6 58 15
153 20 213 6 59 14 155 20 215 5 59 14 154 20 212 6 58 15 155 20 215 5 61 14
157 20 215 6 58 15 155 20 215 5 61 14 157 20 215 6 58 15 153 20 213 6 59 14
155 20 215 5 59 14 154 20 212 6 58 15 155 20 215 5 61 14 157 20 215 6 58 15
155 20 215 5 61 14 157 20 215 6 58 15 153 20 213 6 59 14 155 20 215 5 59 14
154 20 212 6 58 15 155 20 215 5 61 14 157 20 215 6 58 15 155 20 215 5 61 14
157 20 215 6 58 15 153 20 213 6 59 14 155 20 215 5 59 14 152 20 207 21 206
24 294 10 310 -11 13 -198 15 -1716 15 l-1704 0 -14 -22z"/>
</g>
</svg>
